# xmcd
#
# Track frame offsets: 
#        183
#        15150
#        32608
#        49368
#        63918
#        79745
#        95938
#        109908
#        124408
#        138608
#        155295
#        174513
#        190533
#        204458
#
# Disc length: 2917 seconds
#
# Revision: 10
# Processed by: cddbd v1.5.2PL0 Copyright (c) Steve Scherf et al.
# Submitted via: ExactAudioCopy v1.0b3
#
DISCID=bb0b630e
DTITLE=Die Flippers - Malaika
DYEAR=1993
DGENRE=Schlager
TTITLE0=Summer lady
TTITLE1=Elisa
TTITLE2=Solang es Deine Liebe gibt
TTITLE3=Acapulco
TTITLE4=St. Tropez
TTITLE5=Mitternacht in Trinidad
TTITLE6=Veronika
TTITLE7=Hab' ich Dich verloren?
TTITLE8=Sommerwind
TTITLE9=Kleine Sonja
TTITLE10=Nie mehr allein
TTITLE11=Mit dem Wind um die Welt
TTITLE12=Jeder Abschied kann ein neuer Anfang sein
TTITLE13=Malaika
EXTD=YEAR: 1988
EXTT0=
EXTT1=
EXTT2=
EXTT3=
EXTT4=
EXTT5=
EXTT6=
EXTT7=
EXTT8=
EXTT9=
EXTT10=
EXTT11=
EXTT12=
EXTT13=
PLAYORDER=
